<?xml version="1.0" standalone="no"?>
<!DOCTYPE svg PUBLIC "-//W3C//DTD SVG 20010904//EN"
 "http://www.w3.org/TR/2001/REC-SVG-20010904/DTD/svg10.dtd">
<svg version="1.0" xmlns="http://www.w3.org/2000/svg"
 width="512.000000pt" height="512.000000pt" viewBox="0 0 512.000000 512.000000"
 preserveAspectRatio="xMidYMid meet">
<metadata>
Created by potrace 1.14, written by Peter Selinger 2001-2017
</metadata>
<g transform="translate(0.000000,512.000000) scale(0.100000,-0.100000)"
fill="#000000" stroke="none">
<path d="M2379 5116 c-2 -2 -40 -6 -84 -10 -44 -3 -89 -8 -100 -10 -11 -2 -54
-9 -95 -16 -162 -26 -424 -97 -535 -145 -16 -8 -68 -30 -115 -50 -570 -246
-1052 -726 -1278 -1275 -87 -211 -131 -383 -161 -625 -9 -71 -7 -419 3 -465 2
-14 10 -59 16 -100 35 -236 129 -502 267 -755 97 -178 123 -351 78 -526 -9
-35 -98 -279 -196 -542 -123 -327 -178 -486 -175 -505 2 -15 5 -30 5 -34 2
-17 45 -47 77 -53 29 -5 119 28 612 225 317 127 591 237 608 245 16 8 72 25
124 38 143 37 273 30 490 -27 47 -12 165 -35 270 -51 90 -14 190 -19 365 -20
220 0 302 6 469 35 155 27 162 29 241 51 38 11 75 22 80 23 97 25 298 104 425
167 153 75 366 210 464 294 6 6 41 35 76 65 66 55 212 200 263 261 304 361
483 770 534 1224 15 127 6 503 -12 558 -2 7 -7 30 -10 52 -27 186 -120 455
-227 655 -156 292 -337 505 -652 768 -37 31 -216 150 -293 195 -177 103 -525
244 -663 270 -14 3 -55 12 -92 21 -70 16 -149 30 -277 47 -69 10 -494 22 -502
15z m-736 -2067 c159 -59 237 -232 176 -394 -41 -109 -142 -184 -260 -193
-181 -13 -326 123 -326 304 0 130 79 242 204 289 51 19 147 16 206 -6z m1046
-9 c89 -43 135 -98 165 -196 38 -122 -27 -281 -139 -342 -88 -48 -205 -53
-285 -14 -187 91 -233 339 -92 485 93 96 233 123 351 67z m1004 10 c66 -25
138 -91 169 -157 32 -67 32 -187 0 -255 -51 -108 -147 -170 -270 -174 -89 -3
-151 20 -215 80 -72 66 -92 115 -92 221 0 75 4 97 23 133 76 143 239 207 385
152z"/>
</g>
</svg>
